PathFileType	4	(X/Y/Z)	C:/Users/beibeiliu/ov580/test_trc/User3\sequence.24_training_dense_right.trc
DataRate	CameraRate	NumFrames	NumMarkers	Units	OrigDataRate	OrigDataStartFrame	OrigNumFrames
120	120	10	19	mm	120	104	275
Frame#	Time	ThumbCMC			ThumbMCP			ThumbIP			ThumbTip			IndexMCP			IndexPIP			IndexTip			MiddleMCP			MiddlePIP			MiddleTip			RingMCP			RingPIP			RingTip			PinkyMCP			PinkyPIP			PinkyTip			BackHand1			BackHand2			BackHand3	
		X0	Y0	Z0	X1	Y1	Z1	X2	Y2	Z2	X3	Y3	Z3	X4	Y4	Z4	X5	Y5	Z5	X6	Y6	Z6	X7	Y7	Z7	X8	Y8	Z8	X9	Y9	Z9	X10	Y10	Z10	X11	Y11	Z11	X12	Y12	Z12	X13	Y13	Z13	X14	Y14	Z14	X15	Y15	Z15	X16	Y16	Z16	X17	Y17	Z17	X18	Y18	Z18	
103	0.858333	151.96	-0.895243	24.5271	132.321	-19.4404	7.35589	113.776	-32.4995	-11.7282	98.4641	-44.5182	-27.7336	155.759	-25.3932	-50.4848	135.412	-40.9671	-64.0348	118.541	-60.3268	-71.2029	165.992	-47.4812	-40.7715	140.852	-64.299	-24.3028	146.593	-49.2999	10.4944	173.229	-57.8631	-27.4316	157.921	-69.284	-5.38494	165.99	-46.8584	18.7941	186.533	-68.5011	-16.2671	168.205	-70.9209	2.30298	175.476	-49.8486	24.1936	211.436	-20.4418	-6.04577	217.655	-9.40971	25.6919	187.68	8.61732	8.16405	
104	0.866667	154.802	-2.06183	25.1914	125.58	-14.5209	8.36998	107.849	-28.8941	-8.97435	93.0809	-39.4508	-19.1594	147.184	-24.9045	-47.3602	125.234	-42.4963	-59.9829	109.615	-63.0453	-63.107	151.219	-49.7043	-39.175	130.914	-65.586	-18.8214	141.02	-49.2586	15.1899	163.594	-63.5296	-22.3071	143.799	-67.1621	2.47136	161.408	-46.1355	22.9619	176.824	-72.4629	-12.3438	157.589	-72.5331	9.69835	169.761	-46.2993	26.8877	207.01	-27.2102	-3.34445	215.644	-18.4519	26.5488	189.565	-0.473165	8.34345	
105	0.875	153.277	-0.00880757	22.1636	122.972	-11.5858	10.334	98.9353	-23.1127	-5.78254	83.7639	-34.2681	-16.26	139.508	-31.4351	-46.0278	117.18	-44.1251	-53.6386	97.5063	-59.8191	-55.4531	142.693	-54.1821	-33.6058	119.803	-63.6005	-14.7773	133.066	-44.7435	19.2613	148.744	-65.6451	-17.6443	132.548	-64.3006	8.26386	149.244	-44.9265	26.0593	162.955	-76.5604	-6.56768	145.016	-68.1743	15.8894	161.92	-48.8857	29.244	198.967	-37.687	-5.00359	210.886	-24.3897	23.474	185.399	-4.43396	3.42361	
106	0.883333	150.813	3.67894	21.4453	120.828	-7.09615	11.5768	95.8742	-19.3587	-3.55775	80.0335	-28.3397	-9.19337	133.705	-37.6521	-41.6102	111.556	-47.149	-47.4859	85.594	-60.3399	-48.279	133.13	-58.7492	-27.9767	109.141	-60.872	-5.59578	129.089	-40.3294	25.0295	139.001	-67.3572	-13.261	123.064	-63.9648	11.5287	140.909	-42.9748	28.2671	152.848	-80.3255	0.404461	136.427	-68.7448	23.9012	155.356	-52.3077	34.9149	194.772	-48.8807	-3.30641	208.829	-35.5277	25.2276	185.021	-11.365	0.962539	
107	0.891667	150.841	2.72584	21.3582	120.433	-9.51972	11.7841	92.867	-17.2501	-1.72988	72.9082	-21.6375	-7.66158	127.641	-37.362	-40.3067	99.2346	-43.8321	-45.6313	72.9326	-55.3921	-41.683	122.513	-57.9466	-26.0163	100.161	-54.6549	-3.45071	119.91	-40.9212	25.7902	130.338	-67.404	-8.43538	115.292	-62.0624	19.7943	134.991	-41.0898	31.1774	138.001	-80.7411	6.67106	124.262	-67.9383	25.3991	146.651	-46.712	35.6837	185.917	-55.5569	0.898253	200.974	-40.6764	23.1465	183.249	-16.3633	2.76794	
108	0.9	152.515	-0.127734	21.4857	116.816	-4.7656	10.7897	88.8015	-8.52019	1.4704	70.3206	-16.7304	-5.14812	123.782	-39.2393	-36.4918	92.3629	-44.6162	-40.8908	66.0826	-48.6625	-36.9785	120.634	-55.4543	-22.6434	93.8854	-53.6561	0.41329	115.923	-33.1621	26.4825	119.397	-67.0713	-2.88877	106.961	-57.9443	23.2159	133.253	-38.8883	36.2628	125.8	-77.8731	12.0428	116.084	-62.4546	28.492	141.574	-45.4636	40.6321	178.47	-60.4288	6.26162	195.841	-44.3629	25.2742	182.194	-21.7932	2.29424	
109	0.908333	152.589	2.12246	19.1088	120.066	-1.5225	12.798	88.2666	-5.94561	1.3928	68.7264	-10.7731	-3.91698	120.479	-37.2532	-34.2788	91.9575	-39.8348	-37.4288	61.2647	-43.2953	-33.8988	109.812	-57.1434	-17.0655	88.8598	-42.6974	1.72979	113.526	-30.2715	28.9483	113.761	-66.6461	2.98512	100.382	-53.5791	24.9359	127.148	-35.4845	37.8713	119.389	-74.3194	14.3108	110.846	-55.3899	34.3779	137.253	-42.8462	39.4835	171.597	-62.1991	8.59678	191.975	-51.7024	29.415	178.658	-26.1641	6.1889	
110	0.916667	153.523	0.922913	15.0182	120.017	2.09018	11.0957	91.7249	2.82217	2.01472	69.1184	-0.796573	-4.71806	117.871	-41.2284	-30.3887	86.1753	-38.8061	-34.409	60.6737	-34.964	-33.3964	108.976	-51.5501	-17.359	86.8175	-36.757	7.85955	115.387	-23.9427	29.8171	110.777	-62.3942	5.01372	97.8014	-40.2957	26.9557	123.693	-29.7746	36.9637	112.732	-71.2867	19.4841	106.768	-48.8236	34.0037	136.172	-40.3632	44.0401	166.843	-65.4403	13.0722	187.804	-52.5394	34.247	177.906	-31.1417	3.21431	
111	0.925	158.214	-1.96816	15.6327	126.476	4.42942	9.96948	98.3427	7.83493	0.00510066	75.9937	4.56918	-5.10773	116.033	-39.4825	-31.0232	86.5416	-34.6683	-35.6245	61.0145	-28.1014	-34.0119	106.054	-50.0789	-14.4098	85.5988	-29.4804	2.86206	117.752	-16.8839	29.1127	106.38	-58.0893	7.37242	97.391	-35.0863	25.749	128.692	-26.0667	36.2282	112.171	-66.1812	20.8557	105.603	-43.2746	36.0755	133.226	-37.4092	43.6495	162.007	-64.5929	9.55656	184.643	-58.7576	34.4382	180.982	-32.7807	5.46	
112	0.933333	163.862	-1.48679	12.7826	131.189	3.67709	5.10112	104.639	9.94506	-3.87587	80.4222	9.33912	-10.0241	119.302	-34.798	-33.4244	88.8399	-31.6306	-37.3009	67.3581	-25.5444	-36.5808	104.435	-42.3068	-17.2604	86.6466	-26.1575	1.24171	115.81	-9.05827	26.5393	105.469	-51.3465	2.87516	98.8495	-29.0768	24.875	131.858	-24.2058	34.487	109.331	-62.7652	21.5748	105.727	-38.3531	37.8022	135.655	-35.3452	40.9853	161.253	-68.7837	10.0867	184.298	-60.0019	32.5012	179.542	-35.4547	4.20784	
